<?xml version="1.0" standalone="no"?>
<!DOCTYPE svg PUBLIC "-//W3C//DTD SVG 20010904//EN"
 "http://www.w3.org/TR/2001/REC-SVG-20010904/DTD/svg10.dtd">
<svg version="1.0" xmlns="http://www.w3.org/2000/svg"
 width="520.000000pt" height="520.000000pt" viewBox="0 0 520.000000 520.000000"
 preserveAspectRatio="xMidYMid meet">
<metadata>
Created by potrace 1.14, written by Peter Selinger 2001-2017
</metadata>
<g transform="translate(0.000000,520.000000) scale(0.100000,-0.100000)"
fill="#000000" stroke="none">
<path d="M2410 5194 c-19 -2 -78 -9 -130 -15 -545 -63 -1084 -321 -1489 -713
-423 -411 -688 -941 -772 -1546 -18 -125 -18 -515 0 -640 58 -418 197 -790
422 -1125 421 -628 1070 -1029 1839 -1136 125 -18 515 -18 640 0 579 80 1084
323 1489 715 375 365 637 843 740 1356 37 182 46 283 46 510 0 354 -50 624
-171 937 -339 878 -1122 1499 -2069 1639 -96 14 -472 27 -545 18z m-515 -1374
c118 -20 340 -75 363 -89 9 -5 12 -50 10 -163 l-3 -155 -120 48 c-224 90 -411
126 -605 116 -317 -16 -486 -142 -498 -372 -5 -94 6 -143 48 -208 59 -93 154
-132 495 -203 429 -89 599 -172 719 -352 68 -103 98 -202 104 -348 17 -438
-228 -689 -726 -743 -257 -28 -530 4 -832 96 l-125 38 -3 171 -2 171 99 -49
c115 -56 297 -119 421 -145 131 -28 388 -25 495 5 157 45 250 116 303 230 24
51 27 69 27 167 0 98 -3 116 -27 167 -46 100 -134 167 -287 219 -31 11 -154
40 -273 64 -333 69 -477 128 -601 244 -121 114 -173 262 -164 466 15 354 258
590 662 644 108 15 382 5 520 -19z m2110 0 c118 -20 340 -75 363 -89 9 -5 12
-50 10 -163 l-3 -155 -120 48 c-224 90 -411 126 -605 116 -317 -16 -486 -142
-498 -372 -5 -94 6 -143 48 -208 59 -93 154 -132 495 -203 429 -89 599 -172
719 -352 68 -103 98 -202 104 -348 17 -438 -228 -689 -726 -743 -257 -28 -530
4 -832 96 l-125 38 -3 171 -2 171 99 -49 c115 -56 297 -119 421 -145 131 -28
388 -25 495 5 157 45 250 116 303 230 24 51 27 69 27 167 0 98 -3 116 -27 167
-46 100 -134 167 -287 219 -31 11 -154 40 -273 64 -333 69 -477 128 -601 244
-121 114 -173 262 -164 466 15 354 258 590 662 644 108 15 382 5 520 -19z"/>
</g>
</svg>
